<?xml version="1.0" encoding="UTF-8" standalone="no"?><!DOCTYPE svg PUBLIC "-//W3C//DTD SVG 1.1//EN" "http://www.w3.org/Graphics/SVG/1.1/DTD/svg11.dtd"><svg width="100%" height="100%" viewBox="0 0 2191 1844" version="1.1" xmlns="http://www.w3.org/2000/svg" xmlns:xlink="http://www.w3.org/1999/xlink" xml:space="preserve" xmlns:serif="http://www.serif.com/" style="fill-rule:evenodd;clip-rule:evenodd;stroke-linecap:round;stroke-linejoin:round;stroke-miterlimit:1.5;"><g><g><path d="M326.421,292.174l133.92,155.484c149.426,-117.922 350.762,-165.977 537.501,-128.853c102.625,19.743 200.278,64.805 282.669,128.853l133.986,-155.562l-184.964,-184.964l-0.642,-0.269l-717.156,-0l-0.004,0.002l-185.31,185.309Z" style="fill:#fa9c1e;stroke:#fa9c1e;stroke-width:3.12px;"/><path d="M1457.35,340.682l276.408,276.407l0.082,0.187l-0,717.2l-0.154,0.38l-506.774,506.775l-1.074,0.443l-716.493,0l-0.71,-0.302l-506.719,-506.718l-0.35,-0.845l-0,-716.581l0.319,-0.776l276.092,-276.092l130.812,151.876c-51.293,49.227 -95.507,106.522 -128.913,169.302c-106.86,195.97 -104.204,446.525 6.817,640.332l2.066,-1.994c44.993,80.084 106.124,149.894 178.974,204.972l-1.924,1.858c66.202,50.52 142.375,88.169 222.817,110.608c197.557,55.958 420.506,14.086 582.995,-112.157l-1.946,-1.883c72.829,-55.454 133.853,-125.627 178.543,-206.13l1.898,1.834c47.622,-85.207 75.799,-180.953 82.224,-277.969c14.686,-195.816 -63.21,-394.304 -205.869,-528.773l130.879,-151.954Z" style="fill:#4a4c4e;stroke:#4a4c4e;stroke-width:3.12px;"/></g><g><g><path d="M1059.2,891.27l-172.356,59.343l-120.074,101.167c28.84,-63.771 61.728,-131.828 91.107,-195.38l173.934,-59.86c15.501,29.251 24.907,61.534 27.389,94.73Z" style="fill:#fa9c1e;"/><path d="M1016.95,830.93l-114.714,141.666l-136.133,78.231c69.789,-5.29 144.99,-12.917 214.757,-18.788l115.74,-142.972c-22.186,-24.57 -49.305,-44.45 -79.65,-58.137Z" style="fill:#fa9c1e;"/></g></g><path d="M871.126,435.165c301.829,-0 546.875,245.046 546.875,546.875c0,301.828 -245.046,546.875 -546.875,546.875c-301.828,-0 -546.875,-245.047 -546.875,-546.875c0,-301.829 245.047,-546.875 546.875,-546.875Zm0,109.375c241.463,-0 437.5,196.037 437.5,437.5c0,241.463 -196.037,437.5 -437.5,437.5c-241.462,-0 -437.5,-196.037 -437.5,-437.5c0,-241.463 196.038,-437.5 437.5,-437.5Z" style="fill:#4a4c4e;"/><g><g><g><g><path d="M1855.39,147.856l182.018,48.035l153.54,-19.092c-54.519,39.263 -114.605,79.938 -169.511,118.694l-183.672,-48.498c-0.912,-34.706 5.029,-68.533 17.625,-99.139Z" style="fill:#fa9c1e;"/><path d="M1979.58,325.221l17.115,-187.47l70.455,-137.751c-55.541,37.802 -114.314,80.353 -169.512,118.693l-17.246,189.182c32.301,12.728 66.12,18.714 99.188,17.346Z" style="fill:#fa9c1e;"/></g></g><path d="M1038.91,819.219l34.094,48.691l834.333,-584.206l-34.094,-48.691l-834.333,584.206Z" style="fill:#fa9c1e;"/></g></g><path d="M884.283,719.538c146.602,0 265.625,119.023 265.625,265.625c-0,146.602 -119.023,265.625 -265.625,265.625c-146.603,0 -265.625,-119.023 -265.625,-265.625c-0,-146.602 119.022,-265.625 265.625,-265.625Zm-0,79.688c102.621,-0 185.937,83.315 185.937,185.937c0,102.622 -83.316,185.938 -185.937,185.938c-102.622,-0 -185.938,-83.316 -185.938,-185.938c0,-102.622 83.316,-185.937 185.938,-185.937Z" style="fill:#4a4c4e;"/></g></svg>